PathFileType	4	(X/Y/Z)	C:/Users/opensim2020/Desktop/walking_exp_matlab/subject06_walking23_straight_01.trc																																																																																																																																					
DataRate	CameraRate	NumFrames	NumMarkers	Units	OrigDataRate	OrigDataStartFrame	OrigNumFrames																																																																																																																																	
100	100	4	45	mm	100	777	106																																																																																																																																	
Frame#	Time	LFHD			RFHD			LBHD			RBHD			C7			T10			CLAV			STRN			RBAK			LSHO			LUPA			LELB			LFRM			LWRA			LWRB			LFIN			RSHO			RUPA			RELB			RFRM			RWRA			RWRB			RFIN			LASI			RASI			LPSI			RPSI			LTHI			LKNE			LTIB			LANK			LHEE			LTOE			RTHI			RKNE			RTIB			RANK			RHEE			RTOE			*39			*40			*41			*42			*43			*44		
		X1	Y1	Z1	X2	Y2	Z2	X3	Y3	Z3	X4	Y4	Z4	X5	Y5	Z5	X6	Y6	Z6	X7	Y7	Z7	X8	Y8	Z8	X9	Y9	Z9	X10	Y10	Z10	X11	Y11	Z11	X12	Y12	Z12	X13	Y13	Z13	X14	Y14	Z14	X15	Y15	Z15	X16	Y16	Z16	X17	Y17	Z17	X18	Y18	Z18	X19	Y19	Z19	X20	Y20	Z20	X21	Y21	Z21	X22	Y22	Z22	X23	Y23	Z23	X24	Y24	Z24	X25	Y25	Z25	X26	Y26	Z26	X27	Y27	Z27	X28	Y28	Z28	X29	Y29	Z29	X30	Y30	Z30	X31	Y31	Z31	X32	Y32	Z32	X33	Y33	Z33	X34	Y34	Z34	X35	Y35	Z35	X36	Y36	Z36	X37	Y37	Z37	X38	Y38	Z38	X39	Y39	Z39	X40	Y40	Z40	X41	Y41	Z41	X42	Y42	Z42	X43	Y43	Z43	X44	Y44	Z44	X45	Y45	Z45
																																																																																																																																								
40	0.39	-341.02032	1659.25208	1361.75146	-335.25745	1651.08862	1493.50232	-476.73526	1612.4519	1369.15991	-469.32556	1609.10583	1498.41882	-482.13727	1453.97717	1424.83203	-532.23566	1127.48267	1425.54504	-373.05975	1374.02905	1425.51819	-339.66467	1196.9281	1414.76099	-560.08081	1285.01843	1501.11279	-430.5401	1410.42078	1264.7218	-434.04797	1211.23462	1188.44641	-432.1633	1099.01416	1173.88953	-363.39151	966.1662	1150.58228	-260.82117	888.87054	1188.67676	-316.15457	856.48413	1158.59668	-243.57887	803.13373	1152.44177	-418.33212	1405.30225	1586.16504	-476.89191	1215.21155	1677.25879	-484.08432	1093.97595	1694.96545	-489.37573	974.9436	1719.30054	-456.52469	825.20911	1698.73877	-509.58524	838.5426	1736.31885	-486.83331	757.53064	1743.98767	-368.76712	954.02356	1315.78149	-360.91656	969.11682	1534.6748	-524.92505	988.65967	1347.54395	-513.69153	1000.72607	1514.47144	-427.74347	633.11395	1268.56042	-414.04742	470.98737	1288.1842	-610.88507	325.57733	1288.67444	-752.14331	227.32999	1321.33545	-787.85028	252.00764	1365.948	-705.53577	86.86079	1330.91675	-375.02051	641.32758	1591.5929	-344.76559	521.51666	1559.06775	-381.35986	255.47507	1547.9873	-394.5672	73.47606	1491.88525	-432.4935	50.99059	1445.16858	-242.83238	39.70394	1498.69409	-436.07947	1704.15002	1424.75928	NaN	NaN	NaN	NaN	NaN	NaN	NaN	NaN	NaN	NaN	NaN	NaN	NaN	NaN	NaN
41	0.4	-326.96747	1661.02124	1362.31433	-321.10919	1653.01306	1494.12744	-462.79303	1614.57458	1369.92529	-455.31512	1611.41431	1499.19312	-468.93005	1456.19092	1426.15723	-518.66974	1129.62134	1426.99915	-359.73383	1376.07178	1426.46826	-326.1839	1199.04163	1415.875	-546.47473	1287.29993	1502.94995	-417.50656	1412.30042	1265.74963	-422.785	1212.96765	1189.81531	-422.56577	1100.62939	1175.77307	-357.47961	965.68561	1152.15393	-257.33081	884.72241	1189.71484	-313.98303	854.54462	1159.599	-243.21356	798.53802	1153.2074	-404.58435	1407.62292	1587.1145	-460.54959	1216.91492	1678.5354	-465.82373	1095.56335	1696.05823	-467.44904	976.40771	1720.39417	-427.3284	829.34222	1701.30518	-483.65717	839.47949	1736.90674	-458.03568	759.35181	1744.53223	-354.54825	956.77185	1317.4585	-347.9928	971.15735	1535.91956	-510.83914	990.8382	1348.52393	-500.44116	1002.82452	1515.31042	-406.5899	636.21735	1269.9635	-388.24805	474.57251	1290.35278	-581.94501	324.91599	1290.13647	-720.68768	222.50282	1322.4231	-757.7995	245.6228	1366.92847	-667.27124	85.43222	1330.52539	-367.25949	641.80267	1592.6449	-339.61682	521.13812	1560.31848	-379.23492	255.47736	1548.68591	-394.51425	73.8834	1492.35828	-432.56534	51.22057	1445.33032	-242.76984	39.49263	1498.84131	-421.91739	1706.25366	1425.39148	NaN	NaN	NaN	NaN	NaN	NaN	NaN	NaN	NaN	NaN	NaN	NaN	NaN	NaN	NaN
42	0.41	-313.06705	1662.50049	1362.80713	-307.06549	1654.67395	1494.64905	-449.05612	1616.50232	1370.71582	-441.38034	1613.47217	1499.9209	-455.82513	1458.09912	1427.51501	-505.18774	1131.69153	1428.46338	-346.48883	1377.89465	1427.2594	-312.65857	1201.00854	1416.91553	-532.71368	1289.34827	1504.72607	-404.64798	1413.97839	1266.79163	-411.37024	1214.54932	1191.15137	-413.00052	1102.07727	1177.50964	-351.69879	965.23907	1153.77209	-254.18137	880.63049	1190.78784	-311.91678	852.6712	1160.60535	-243.27592	794.12994	1154.04407	-390.90167	1409.75122	1588.01599	-444.2851	1218.47644	1679.76587	-447.48392	1097.08838	1697.34644	-445.90012	977.91956	1721.43396	-403.17606	831.3291	1700.14685	-457.55829	840.46045	1737.34924	-429.2879	761.35205	1744.80518	-340.17484	958.93292	1318.85034	-334.90933	973.03992	1537.69019	-496.70892	992.76349	1349.39063	-487.17575	1004.59558	1516.22742	-385.88849	639.27295	1271.46362	-363.17474	478.20557	1292.31189	-553.04883	323.68582	1291.8136	-688.55402	216.81166	1323.39026	-726.89984	237.74971	1368.10522	-627.65234	83.63262	1330.94373	-360.13919	641.87622	1593.22949	-334.20273	520.7262	1561.48682	-377.47278	255.52254	1549.20313	-394.40903	73.98718	1492.43115	-432.56525	51.52379	1445.32532	-242.48001	39.09108	1499.49683	-407.77054	1708.09485	1425.95984	NaN	NaN	NaN	NaN	NaN	NaN	NaN	NaN	NaN	NaN	NaN	NaN	NaN	NaN	NaN
43	0.42	-299.1301	1663.73621	1363.31628	-293.01035	1656.07739	1495.11963	-435.2561	1618.15894	1371.39478	-427.5715	1615.32178	1500.81738	-442.28198	1459.38708	1428.57214	-491.61319	1133.4032	1429.84229	-333.13831	1379.4873	1428.1438	-299.20682	1202.65149	1417.99976	-519.10663	1291.17163	1506.53613	-391.77725	1415.41833	1267.84412	-400.31738	1215.99939	1192.2915	-403.51471	1103.41016	1179.19385	-346.25089	964.64264	1155.13721	-251.41391	876.58801	1191.97095	-310.14758	850.77179	1161.61963	-243.67055	789.79901	1154.92615	-377.24802	1411.61523	1588.85852	-428.21103	1219.9165	1680.99072	-429.74289	1098.52002	1698.5769	-424.78726	979.45532	1722.31653	-375.48587	835.15222	1701.41345	-431.6098	841.55365	1737.57751	-400.5676	763.54871	1744.83704	-325.91714	961.05646	1320.60376	-322.25308	974.30438	1539.34534	-482.71823	994.51434	1350.23987	-474.71017	1006.16095	1517.10986	-365.3494	642.14362	1272.70496	-338.68167	481.79498	1294.27869	-523.80597	321.94977	1293.58948	-655.55414	210.10248	1324.68359	-695.21326	228.69475	1369.53162	-587.17053	81.28405	1331.34644	-352.31967	641.94092	1594.13379	-328.77341	520.15448	1562.46667	-376.00354	255.58008	1549.45642	-394.35995	74.19923	1492.40442	-432.44873	51.9348	1445.15649	-242.05107	38.74802	1499.90588	-393.68918	1709.7406	1426.46313	NaN	NaN	NaN	NaN	NaN	NaN	NaN	NaN	NaN	NaN	NaN	NaN	NaN	NaN	NaN
